<?xml version="1.0" encoding="utf-8"?>
<!-- Generator: Adobe Illustrator 25.0.0, SVG Export Plug-In . SVG Version: 6.00 Build 0)  -->
<svg version="1.1" id="Calque_1" xmlns="http://www.w3.org/2000/svg" xmlns:xlink="http://www.w3.org/1999/xlink" x="0px" y="0px"
	 viewBox="0 0 1938.45 627.55" enable-background="new 0 0 1938.45 627.55" xml:space="preserve">
<g>
	<g>
		<path fill="#B3B2B2" d="M497.29,316.81c7.6,65-8.99,125.38-45.92,170.21c-36.53,44.66-93.4,73.76-157.19,72.23
			c-63.79-1.07-120.66-32.26-157.19-77.11c-36.93-45.14-53.51-103.95-45.92-166.8c7.61-62.88,36.32-120.67,72.87-164.68
			c36.93-43.73,81.69-73.69,130.24-74.37c48.55-1.1,93.31,27.52,130.24,71.58C460.97,192.1,489.68,251.77,497.29,316.81z"/>
		<g>
			<path fill="#6C6C6C" d="M241.29,211.72c39.12-0.46,58.86,21.8,59.19,66.34c0.06,14.98-4,27.42-12.38,37.3
				c8.3,9.94,12.58,22.41,12.64,37.39c0.33,44.52-21.64,66.76-65.88,65.66c-35.26-0.88-70.49-2.19-105.68-3.94
				c5.96-67.05,11.93-134.11,17.89-201.16C178.44,212.61,209.85,212.08,241.29,211.72z M226.69,285.5
				c8.2,0.03,12.38-2.42,12.53-7.35c0.15-4.92-3.84-7.38-11.97-7.38c-4.07,0-8.13,0-12.19,0c-0.22,4.9-0.44,9.79-0.66,14.69
				C218.49,285.48,222.59,285.49,226.69,285.5z M224.44,344.42c-4.24-0.06-8.47-0.13-12.71-0.19c-0.22,4.9-0.44,9.79-0.66,14.69
				c4.27,0.08,8.54,0.16,12.81,0.23c8.54,0.15,12.89-2.25,13.04-7.17C237.07,347.05,232.91,344.54,224.44,344.42z"/>
			<path fill="#6C6C6C" d="M393.46,300.93c-0.08,0-0.17,0-0.25,0c-0.01-0.15-0.02-0.3-0.02-0.45c-0.74-13.37-3.03-20.05-6.86-20.05
				c-3.67,0-5.19,6.7-4.54,20.08c0.48,9.91,0.96,19.83,1.45,29.74c0.62,12.79,2.84,19.17,6.66,19.15c3.99-0.03,5.64-6.43,4.93-19.21
				c-0.14-2.58-0.28-5.15-0.43-7.73c23.12-0.12,46.23-0.31,69.32-0.57c0.24,2.55,0.48,5.09,0.72,7.64
				c6.09,61.43-17.43,93.36-70.69,94.18c-53.27,0.61-80.12-31.06-80.48-93.41c-0.1-9.93-0.21-19.85-0.31-29.78
				c-0.37-62.97,22.83-94.7,69.52-94.44c46.69,0.41,73.04,32,79.19,94.05c0.24,2.55,0.48,5.09,0.72,7.64
				c-22.82,0.19-45.66,0.32-68.52,0.41C393.73,305.78,393.6,303.36,393.46,300.93z"/>
		</g>
		<path opacity="0.33" fill="#FFFFFF" d="M426.74,125.56c-94.12,109.73-210.59,231.9-347.99,330.22
			c-13.12-20.65-25.74-41.03-37.87-61.04C176.81,296.77,292,174.19,384.99,63.22C398.43,84.02,412.35,104.83,426.74,125.56z"/>
		<path opacity="0.33" fill="#FFFFFF" d="M501.44,293.77c-69.97,80.95-151.3,167.35-243.56,246.35
			c-43.51-14.94-86.14-30.74-127.82-46.91C266.76,392.11,382.28,269.36,475.3,161.36C483.73,205.64,492.44,249.78,501.44,293.77z"/>
		<path fill="#555454" d="M294.18,26.83c-56.62,0.98-109.04,38.63-153.54,91.54C96.7,171.76,60.68,240.4,49.63,314.42
			c-11.02,73.98,7.41,144.06,51.9,199.01c43.92,54.48,113.9,93.83,192.65,95.26c78.74,2.25,148.73-34.18,192.65-88.45
			c44.49-54.58,62.92-127,51.9-204.06c-11.04-77.11-47.06-148.46-91.01-202.11C403.22,60.75,350.8,25.13,294.18,26.83z
			 M294.18,559.25c-63.79-1.07-120.66-32.26-157.19-77.11c-36.93-45.14-53.51-103.95-45.92-166.8
			c7.61-62.88,36.32-120.67,72.87-164.68c36.93-43.73,81.69-73.69,130.24-74.37c48.55-1.1,93.31,27.52,130.24,71.58
			c36.54,44.23,65.26,103.91,72.87,168.94c7.6,65-8.99,125.38-45.92,170.21C414.84,531.68,357.97,560.78,294.18,559.25z"/>
	</g>
</g>
<g>
	<path fill="#020203" d="M743.9,231.14h-47.49v-99.82h46.35c20.39,0,32.94,10.12,32.94,25.81v0.29c0,11.26-5.99,17.54-13.12,21.53
		c11.55,4.42,18.68,11.12,18.68,24.53v0.29C781.26,222.01,766.43,231.14,743.9,231.14z M753.88,160.84c0-6.56-5.13-10.27-14.4-10.27
		H717.8v21.11h20.25c9.7,0,15.83-3.14,15.83-10.55V160.84z M759.44,200.77c0-6.7-4.99-10.84-16.26-10.84H717.8v21.96h26.1
		c9.7,0,15.54-3.42,15.54-10.84V200.77z"/>
	<path fill="#020203" d="M945.54,231.14l-21.39-31.94H906.9v31.94h-21.96v-99.82h45.63c23.53,0,37.65,12.41,37.65,32.94v0.29
		c0,16.11-8.7,26.24-21.39,30.95l24.39,35.65H945.54z M945.97,165.4c0-9.41-6.56-14.26-17.26-14.26H906.9v28.66h22.25
		c10.69,0,16.83-5.71,16.83-14.12V165.4z"/>
	<path fill="#020203" d="M1026.97,231.14h-38.93v-99.82h38.93c31.37,0,53.05,21.53,53.05,49.63v0.29
		C1080.02,209.32,1058.35,231.14,1026.97,231.14z M1057.06,181.23c0-17.68-12.12-30.09-30.09-30.09H1010v60.18h16.97
		c17.97,0,30.09-12.12,30.09-29.8V181.23z"/>
	<path fill="#020203" d="M1100.56,231.14v-99.82h21.96v99.82H1100.56z"/>
	<path fill="#020203" d="M1147.48,231.14v-99.82h75.3v19.54h-53.48v20.25h47.06v19.54h-47.06v20.96h54.19v19.54H1147.48z"/>
	<path fill="#020203" d="M1303.64,231.14l-21.39-31.94h-17.26v31.94h-21.96v-99.82h45.63c23.53,0,37.65,12.41,37.65,32.94v0.29
		c0,16.11-8.7,26.24-21.39,30.95l24.38,35.65H1303.64z M1304.07,165.4c0-9.41-6.56-14.26-17.26-14.26h-21.82v28.66h22.25
		c10.7,0,16.83-5.71,16.83-14.12V165.4z"/>
	<path fill="#020203" d="M1435.7,232.85c-29.38,0-51.2-22.67-51.2-51.34v-0.29c0-28.38,21.39-51.62,52.05-51.62
		c18.82,0,30.09,6.27,39.36,15.4l-13.98,16.11c-7.7-6.99-15.54-11.26-25.53-11.26c-16.83,0-28.95,13.97-28.95,31.09v0.29
		c0,17.11,11.84,31.37,28.95,31.37c11.41,0,18.4-4.56,26.24-11.69l13.98,14.12C1466.36,226.01,1454.95,232.85,1435.7,232.85z"/>
	<path fill="#020203" d="M1580.73,231.14v-99.82h21.96v99.82H1580.73z"/>
	<path fill="#020203" d="M1697.67,231.14l-48.35-63.46v63.46h-21.68v-99.82h20.25l46.77,61.46v-61.46h21.68v99.82H1697.67z"/>
</g>
<g>
	<path fill-rule="evenodd" clip-rule="evenodd" fill="#FFFFFF" d="M537.96,27.99c-32.02,0.41-57.84,26.49-57.84,58.6
		c0,32.37,26.24,58.6,58.6,58.6c32.36,0,58.6-26.24,58.6-58.6c0-32.37-26.24-58.6-58.6-58.6C538.48,27.99,538.21,27.99,537.96,27.99
		L537.96,27.99z"/>
	<path fill-rule="evenodd" clip-rule="evenodd" fill="#5C5C5C" d="M537.66,53.11c-18,0.57-32.42,15.35-32.42,33.49
		c0,18.49,14.99,33.49,33.49,33.49c15.82,0,29.09-10.96,32.59-25.71l-16.43,0c-2.9,6.01-9.04,10.17-16.16,10.17
		c-9.91,0-17.94-8.03-17.94-17.94c0-9.71,7.72-17.63,17.36-17.94c0.19-0.01,0.39,0,0.58,0c7.12,0,13.27,4.15,16.16,10.17l16.43,0
		c-3.5-14.75-16.77-25.71-32.59-25.71h-0.43c-0.14,0-0.29,0-0.43,0C537.87,53.11,537.66,53.11,537.66,53.11z"/>
	<path fill-rule="evenodd" clip-rule="evenodd" fill="#5C5C5C" d="M569.73,40.53l-48.17,99.83l-13.83-7.71l48.17-99.83L569.73,40.53
		z"/>
	<path fill-rule="evenodd" clip-rule="evenodd" fill="#5C5C5C" d="M537.96,27.99c-32.02,0.41-57.84,26.49-57.84,58.6
		c0,32.37,26.24,58.6,58.6,58.6c32.36,0,58.6-26.24,58.6-58.6c0-32.37-26.24-58.6-58.6-58.6C538.48,27.99,538.21,27.99,537.96,27.99
		L537.96,27.99z M537.83,40.55c0.3-0.01,0.6,0,0.9,0c25.43,0,46.04,20.61,46.04,46.04s-20.61,46.04-46.04,46.04
		c-25.43,0-46.04-20.61-46.04-46.04C492.68,61.46,512.81,41.02,537.83,40.55z"/>
</g>
<g>
	<g>
		<path fill="#FFFFFF" d="M1561.41,182.09c3.3,24.03-13.61,45.56-37.86,45.19c-24.25-0.73-41.16-22.37-37.86-45.47
			c3.29-23.11,20.21-43.97,37.86-44.56C1541.2,137.06,1558.12,158.06,1561.41,182.09z"/>
		<path fill="#020203" d="M1548.26,146.45c-17.54,20.45-39.25,43.23-64.87,61.55c-1.15-3.98-2.24-7.92-3.28-11.82
			c23.83-18.44,44.03-40.88,60.36-61.35C1542.98,138.7,1545.58,142.58,1548.26,146.45z"/>
		<path fill="#020203" d="M1562.18,177.8c-14.04,18.05-30.84,37.42-50.29,54.73c-6.6-5.83-12.92-11.72-18.93-17.55
			c25.48-18.85,47.01-41.73,64.35-61.86C1558.88,161.37,1560.51,169.6,1562.18,177.8z"/>
		<path fill="#020203" d="M1523.55,128.04c-20.45,0.93-40.81,26.58-45.58,53.61c-4.79,27.01,15.54,53.75,45.58,54.85
			c30.04,0.46,50.38-26.17,45.58-54.52C1564.36,153.61,1544,127.78,1523.55,128.04z M1523.55,227.29
			c-24.25-0.73-41.16-22.37-37.86-45.47c3.29-23.11,20.21-43.97,37.86-44.56c17.65-0.2,34.57,20.79,37.86,44.83
			C1564.71,206.12,1547.8,227.65,1523.55,227.29z"/>
	</g>
</g>
<rect x="688.09" y="316.25" fill="none" width="1489.7" height="340.76"/>
<text transform="matrix(1 0 0 1 688.0928 354.4196)"><tspan x="0" y="0" fill="#010202" font-family="'GothamBold'" font-size="52.2911px">BC </tspan><tspan x="92.03" y="0" fill="#010202" font-family="'GothamBold'" font-size="52.2911px" letter-spacing="-1">aw</tspan><tspan x="165.92" y="0" fill="#010202" font-family="'GothamBold'" font-size="52.2911px">a</tspan><tspan x="196.87" y="0" fill="#010202" font-family="'GothamBold'" font-size="52.2911px">r</tspan><tspan x="218.21" y="0" fill="#010202" font-family="'GothamBold'" font-size="52.2911px">ded as :</tspan><tspan x="0" y="62.75" fill="#F59E20" font-family="'GothamBold'" font-size="52.2911px">Be</tspan><tspan x="69.81" y="62.75" fill="#F59E20" font-family="'GothamBold'" font-size="52.2911px">s</tspan><tspan x="95.54" y="62.75" fill="#F59E20" font-family="'GothamBold'" font-size="52.2911px">t Monnaie </tspan><tspan x="372.67" y="62.75" fill="#F59E20" font-family="'GothamBold'" font-size="52.2911px">L</tspan><tspan x="404.52" y="62.75" fill="#F59E20" font-family="'GothamBold'" font-size="52.2911px">ocale API</tspan><tspan x="0" y="125.5" fill="#010202" font-family="'GothamBold'" font-size="52.2911px" letter-spacing="-1">A</tspan><tspan x="39.74" y="125.5" fill="#010202" font-family="'GothamBold'" font-size="52.2911px">t :</tspan><tspan x="0" y="188.25" fill="#F59E20" font-family="'GothamBold'" font-size="52.2911px">G</tspan><tspan x="41" y="188.25" fill="#F59E20" font-family="'GothamBold'" font-size="52.2911px" letter-spacing="-1">r</tspan><tspan x="61.55" y="188.25" fill="#F59E20" font-family="'GothamBold'" font-size="52.2911px">and prix des Ent</tspan><tspan x="493.83" y="188.25" fill="#F59E20" font-family="'GothamBold'" font-size="52.2911px">r</tspan><tspan x="514.9" y="188.25" fill="#F59E20" font-family="'GothamBold'" font-size="52.2911px">eprises de Pépè</tspan><tspan x="937.51" y="188.25" fill="#F59E20" font-family="'GothamBold'" font-size="52.2911px">t</tspan><tspan x="958.43" y="188.25" fill="#F59E20" font-family="'GothamBold'" font-size="52.2911px">e-le</tspan><tspan x="1059.66" y="188.25" fill="#F59E20" font-family="'GothamBold'" font-size="52.2911px" letter-spacing="-2">-</tspan><tspan x="1078.9" y="188.25" fill="#F59E20" font-family="'GothamBold'" font-size="52.2911px" letter-spacing="-3">V</tspan><tspan x="1114.46" y="188.25" fill="#F59E20" font-family="'GothamBold'" font-size="52.2911px">allon</tspan></text>
<g>
	<path fill-rule="evenodd" clip-rule="evenodd" fill="#FFFFFF" d="M1758.39,91.97c-16.01,0.2-28.92,13.24-28.92,29.3
		c0,16.18,13.12,29.3,29.3,29.3c16.18,0,29.3-13.12,29.3-29.3s-13.12-29.3-29.3-29.3C1758.64,91.97,1758.51,91.97,1758.39,91.97
		L1758.39,91.97z"/>
	<path fill-rule="evenodd" clip-rule="evenodd" fill="#020203" d="M1758.24,104.52c-9,0.28-16.21,7.68-16.21,16.74
		c0,9.25,7.5,16.74,16.74,16.74c7.91,0,14.54-5.48,16.3-12.86l-8.21,0c-1.45,3.01-4.52,5.08-8.08,5.08c-4.95,0-8.97-4.02-8.97-8.97
		c0-4.86,3.86-8.82,8.68-8.97c0.1,0,0.19,0,0.29,0c3.56,0,6.63,2.08,8.08,5.08h8.21c-1.75-7.38-8.38-12.86-16.3-12.86h-0.21
		c-0.07,0-0.14,0-0.21,0C1758.34,104.52,1758.24,104.52,1758.24,104.52z"/>
	<path fill-rule="evenodd" clip-rule="evenodd" fill="#020203" d="M1774.27,98.24l-24.09,49.91l-6.92-3.85l24.09-49.91
		L1774.27,98.24z"/>
	<path fill-rule="evenodd" clip-rule="evenodd" fill="#020203" d="M1758.39,91.97c-16.01,0.2-28.92,13.24-28.92,29.3
		c0,16.18,13.12,29.3,29.3,29.3c16.18,0,29.3-13.12,29.3-29.3s-13.12-29.3-29.3-29.3C1758.64,91.97,1758.51,91.97,1758.39,91.97
		L1758.39,91.97z M1758.32,98.25c0.15,0,0.3,0,0.45,0c12.71,0,23.02,10.31,23.02,23.02c0,12.71-10.31,23.02-23.02,23.02
		c-12.71,0-23.02-10.31-23.02-23.02C1735.75,108.7,1745.81,98.48,1758.32,98.25z"/>
</g>
<g>
	<g>
		<path fill="#FFFFFF" d="M870.94,182.09c3.3,24.03-13.61,45.56-37.86,45.19c-24.25-0.73-41.16-22.37-37.86-45.47
			c3.29-23.11,20.21-43.97,37.86-44.56C850.72,137.06,867.65,158.06,870.94,182.09z"/>
		<path fill="#020203" d="M857.79,146.45c-17.54,20.45-39.25,43.23-64.86,61.55c-1.15-3.98-2.24-7.92-3.28-11.82
			c23.83-18.44,44.03-40.88,60.36-61.35C852.51,138.7,855.1,142.58,857.79,146.45z"/>
		<path fill="#020203" d="M871.71,177.8c-14.04,18.05-30.84,37.42-50.29,54.73c-6.6-5.83-12.92-11.72-18.93-17.55
			c25.48-18.85,47.01-41.73,64.35-61.86C868.41,161.37,870.03,169.6,871.71,177.8z"/>
		<path fill="#020203" d="M833.08,128.04c-20.45,0.93-40.81,26.58-45.58,53.61c-4.79,27.01,15.54,53.75,45.58,54.85
			c30.04,0.46,50.38-26.17,45.58-54.52C873.89,153.61,853.53,127.78,833.08,128.04z M833.08,227.29
			c-24.25-0.73-41.16-22.37-37.86-45.47c3.29-23.11,20.21-43.97,37.86-44.56c17.65-0.2,34.57,20.79,37.86,44.83
			C874.24,206.12,857.33,227.65,833.08,227.29z"/>
	</g>
</g>
<rect x="693.69" y="255.18" fill="none" width="1151.2" height="122.13"/>
<text transform="matrix(1 0 0 1 693.6915 279.2712)"><tspan x="0" y="0" fill="#020203" font-family="'GothamBold'" font-size="33px">A </tspan><tspan x="35.97" y="0" fill="#020203" font-family="'GothamBold'" font-size="33px">c</tspan><tspan x="54.32" y="0" fill="#020203" font-family="'GothamBold'" font-size="33px">oin th</tspan><tspan x="150.91" y="0" fill="#020203" font-family="'GothamBold'" font-size="33px">a</tspan><tspan x="170.28" y="0" fill="#020203" font-family="'GothamBold'" font-size="33px">t m</tspan><tspan x="225.22" y="0" fill="#020203" font-family="'GothamBold'" font-size="33px">a</tspan><tspan x="244.59" y="0" fill="#020203" font-family="'GothamBold'" font-size="33px">t</tspan><tspan x="258.29" y="0" fill="#020203" font-family="'GothamBold'" font-size="33px">t</tspan><tspan x="271.49" y="0" fill="#020203" font-family="'GothamBold'" font-size="33px">ers.</tspan></text>
<rect x="-4.7" y="2.48" opacity="0.66" fill-rule="evenodd" clip-rule="evenodd" fill="#FFFFFF" width="635.6" height="627.55"/>
<g>
	
		<rect x="6.51" y="244.21" transform="matrix(0.9338 -0.3577 0.3577 0.9338 -93.4331 122.1311)" fill-rule="evenodd" clip-rule="evenodd" fill="#F59E20" width="553.83" height="138.84"/>
	
		<rect x="108.01" y="162.99" transform="matrix(0.9338 -0.3577 0.3577 0.9338 -54.5974 234.0752)" fill-rule="evenodd" clip-rule="evenodd" fill="none" width="994.86" height="203.26"/>
	<text transform="matrix(0.9622 -0.3686 0.3577 0.9338 124.9255 400.782)"><tspan x="0" y="0" fill="#FFFFFF" font-family="'GothamBold'" font-size="77.9447px" letter-spacing="-3.88">A</tspan><tspan x="57.29" y="0" fill="#FFFFFF" font-family="'GothamBold'" font-size="77.9447px" letter-spacing="-0.97">w</tspan><tspan x="122.84" y="0" fill="#FFFFFF" font-family="'GothamBold'" font-size="77.9447px">a</tspan><tspan x="168.98" y="0" fill="#FFFFFF" font-family="'GothamBold'" font-size="77.9447px">r</tspan><tspan x="200.79" y="0" fill="#FFFFFF" font-family="'GothamBold'" font-size="77.9447px">ded</tspan></text>
</g>
</svg>
