<?xml version="1.0" encoding="utf-8"?>
<!-- Generator: Adobe Illustrator 25.0.0, SVG Export Plug-In . SVG Version: 6.00 Build 0)  -->
<svg version="1.1" id="Calque_1" xmlns="http://www.w3.org/2000/svg" xmlns:xlink="http://www.w3.org/1999/xlink" x="0px" y="0px"
	 viewBox="0 0 1000 1000" enable-background="new 0 0 1000 1000" xml:space="preserve">
<g>
	<g>
		<linearGradient id="SVGID_1_" gradientUnits="userSpaceOnUse" x1="121.3231" y1="505.7164" x2="799.6844" y2="505.7164">
			<stop  offset="0" style="stop-color:#FDD491"/>
			<stop  offset="0.3884" style="stop-color:#FDD28D;stop-opacity:0.9849"/>
			<stop  offset="1" style="stop-color:#F59E1E;stop-opacity:0.5"/>
		</linearGradient>
		<path fill="url(#SVGID_1_)" d="M796.7,504.1c12.58,107.59-14.88,207.54-76,281.75c-60.46,73.92-154.6,122.1-260.19,119.56
			c-105.59-1.77-199.73-53.39-260.19-127.64c-61.12-74.72-88.58-172.06-76-276.1c12.6-104.09,60.12-199.73,120.61-272.59
			c61.12-72.38,135.21-121.97,215.58-123.1c80.36-1.81,154.45,45.55,215.58,118.48C736.57,297.68,784.1,396.46,796.7,504.1z"/>
		<g>
			<path fill="#F29104" d="M372.95,330.16c64.75-0.76,97.42,36.09,97.97,109.81c0.09,24.79-6.62,45.39-20.49,61.74
				c13.74,16.46,20.83,37.09,20.92,61.88c0.55,73.68-35.82,110.5-109.06,108.69c-58.36-1.46-116.68-3.63-174.92-6.52
				c9.87-110.99,19.74-221.98,29.62-332.97C268.92,331.63,320.92,330.75,372.95,330.16z M348.79,452.29
				c13.57,0.04,20.49-4.01,20.74-12.16c0.25-8.15-6.36-12.22-19.81-12.22c-6.73,0-13.46,0-20.18,0c-0.37,8.1-0.73,16.21-1.1,24.31
				C335.22,452.25,342,452.27,348.79,452.29z M345.07,549.81c-7.01-0.1-14.02-0.21-21.03-0.32c-0.37,8.1-0.73,16.21-1.1,24.31
				c7.07,0.14,14.13,0.27,21.2,0.39c14.14,0.25,21.34-3.72,21.59-11.87C365.97,554.17,359.08,550.01,345.07,549.81z"/>
			<path fill="#F29104" d="M624.84,477.83c-0.14,0-0.27,0-0.41,0c-0.01-0.25-0.03-0.49-0.04-0.74
				c-1.23-22.13-5.01-33.19-11.36-33.19c-6.08,0-8.58,11.08-7.51,33.24c0.8,16.41,1.6,32.82,2.39,49.23
				c1.02,21.17,4.7,31.74,11.03,31.69c6.61-0.05,9.33-10.65,8.16-31.79c-0.23-4.26-0.47-8.52-0.7-12.79
				c38.28-0.19,76.53-0.51,114.73-0.94c0.4,4.22,0.79,8.43,1.19,12.65c10.07,101.68-28.85,154.54-117.01,155.9
				c-88.18,1.01-132.62-51.41-133.21-154.61c-0.17-16.43-0.34-32.86-0.51-49.29c-0.6-104.24,37.79-156.75,115.08-156.32
				c77.28,0.67,120.9,52.97,131.08,155.68c0.4,4.22,0.79,8.43,1.19,12.65c-37.77,0.31-75.58,0.54-113.42,0.68
				C625.28,485.86,625.06,481.84,624.84,477.83z"/>
		</g>
		<path opacity="0.33" fill="#FFFFFF" d="M679.92,187.54c-155.79,181.63-348.58,383.85-576,546.59
			c-21.71-34.18-42.6-67.92-62.68-101.04C266.23,470.94,456.9,268.04,610.81,84.36C633.06,118.78,656.1,153.23,679.92,187.54z"/>
		<path opacity="0.33" fill="#FFFFFF" d="M803.57,465.98C677.23,620.53,527.1,786.53,354.14,934.43
			c-57.36-45.87-112.47-92.31-165.29-138.33C415.11,628.75,606.33,425.56,760.3,246.8C774.25,320.1,788.68,393.17,803.57,465.98z"/>
		<path fill="#F59E1E" d="M460.5,24.13c-93.71,1.62-180.49,63.94-254.14,151.52C133.62,264.02,74,377.64,55.72,500.16
			c-18.24,122.45,12.26,238.45,85.91,329.42c72.69,90.17,188.53,155.31,318.88,157.68c130.34,3.72,246.18-56.58,318.88-146.4
			c73.65-90.35,104.15-210.21,85.91-337.78c-18.28-127.64-77.9-245.74-150.64-334.54C640.99,80.27,554.22,21.3,460.5,24.13z
			 M460.5,905.41c-105.59-1.77-199.73-53.39-260.19-127.64c-61.12-74.72-88.58-172.06-76-276.1
			c12.6-104.09,60.12-199.73,120.61-272.59c61.12-72.38,135.21-121.97,215.58-123.1c80.36-1.81,154.45,45.55,215.58,118.48
			c60.49,73.22,108.01,172,120.61,279.64c12.58,107.59-14.88,207.54-76,281.75C660.23,859.77,566.1,907.95,460.5,905.41z"/>
	</g>
</g>
<g>
	<path fill-rule="evenodd" clip-rule="evenodd" fill="#FFFFFF" d="M864.02,26.04c-52.99,0.67-95.73,43.85-95.73,97
		c0,53.57,43.43,97,97,97c53.57,0,97-43.43,97-97c0-53.57-43.43-97-97-97C864.87,26.04,864.44,26.04,864.02,26.04L864.02,26.04z"/>
	<path fill-rule="evenodd" clip-rule="evenodd" fill="#F59E1E" d="M863.53,67.62c-29.79,0.94-53.67,25.41-53.67,55.43
		c0,30.61,24.82,55.43,55.43,55.43c26.19,0,48.15-18.15,53.94-42.56l-27.19,0c-4.8,9.95-14.97,16.83-26.76,16.83
		c-16.4,0-29.69-13.29-29.69-29.69c0-16.08,12.78-29.19,28.74-29.69c0.32-0.01,0.64,0,0.96,0c11.79,0,21.96,6.87,26.76,16.83
		l27.19,0c-5.8-24.41-27.76-42.56-53.94-42.56h-0.71c-0.24,0-0.48-0.01-0.71,0C863.87,67.62,863.53,67.62,863.53,67.62z"/>
	<path fill-rule="evenodd" clip-rule="evenodd" fill="#F59E1E" d="M916.61,46.81l-79.74,165.24l-22.89-12.76l79.74-165.24
		L916.61,46.81z"/>
	<path fill-rule="evenodd" clip-rule="evenodd" fill="#F59E1E" d="M864.02,26.04c-52.99,0.67-95.73,43.85-95.73,97
		c0,53.57,43.43,97,97,97c53.57,0,97-43.43,97-97c0-53.57-43.43-97-97-97C864.87,26.04,864.44,26.04,864.02,26.04L864.02,26.04z
		 M863.8,46.83c0.49-0.01,0.99,0,1.48,0c42.09,0,76.21,34.12,76.21,76.21c0,42.09-34.12,76.21-76.22,76.21s-76.21-34.12-76.21-76.21
		C789.07,81.45,822.39,47.62,863.8,46.83z"/>
</g>
</svg>
