<?xml version="1.0" encoding="utf-8"?>
<!-- Generator: Adobe Illustrator 25.0.0, SVG Export Plug-In . SVG Version: 6.00 Build 0)  -->
<svg version="1.1" id="Calque_1" xmlns="http://www.w3.org/2000/svg" xmlns:xlink="http://www.w3.org/1999/xlink" x="0px" y="0px"
	 viewBox="0 0 1000 145.59" enable-background="new 0 0 1000 145.59" xml:space="preserve">
<g>
	<path fill="#020203" d="M48.62,133.96h-43V43.57h41.97c18.47,0,29.83,9.17,29.83,23.37v0.26c0,10.2-5.42,15.88-11.88,19.5
		c10.46,4,16.92,10.07,16.92,22.21v0.26C82.45,125.7,69.02,133.96,48.62,133.96z M57.65,70.3c0-5.94-4.65-9.3-13.04-9.3H24.98v19.11
		h18.34c8.78,0,14.33-2.84,14.33-9.56V70.3z M62.69,106.46c0-6.07-4.52-9.81-14.72-9.81H24.98v19.89h23.63
		c8.78,0,14.08-3.1,14.08-9.81V106.46z"/>
	<path fill="#020203" d="M231.21,133.96l-19.37-28.93h-15.63v28.93h-19.89V43.57h41.32c21.31,0,34.09,11.23,34.09,29.83v0.26
		c0,14.59-7.88,23.76-19.37,28.02l22.08,32.28H231.21z M231.6,74.43c0-8.52-5.94-12.91-15.63-12.91h-19.76v25.96h20.15
		c9.68,0,15.24-5.17,15.24-12.79V74.43z"/>
	<path fill="#020203" d="M304.95,133.96H269.7V43.57h35.25c28.41,0,48.04,19.5,48.04,44.94v0.26
		C352.99,114.2,333.36,133.96,304.95,133.96z M332.2,88.77c0-16.01-10.98-27.25-27.25-27.25h-15.37v54.49h15.37
		c16.27,0,27.25-10.98,27.25-26.99V88.77z"/>
	<path fill="#020203" d="M371.59,133.96V43.57h19.89v90.39H371.59z"/>
	<path fill="#020203" d="M414.08,133.96V43.57h68.18v17.69h-48.43V79.6h42.61v17.69h-42.61v18.98h49.07v17.69H414.08z"/>
	<path fill="#020203" d="M555.49,133.96l-19.37-28.93h-15.63v28.93H500.6V43.57h41.32c21.31,0,34.09,11.23,34.09,29.83v0.26
		c0,14.59-7.88,23.76-19.37,28.02l22.08,32.28H555.49z M555.87,74.43c0-8.52-5.94-12.91-15.63-12.91h-19.76v25.96h20.14
		c9.69,0,15.24-5.17,15.24-12.79V74.43z"/>
	<path fill="#020203" d="M675.07,135.51c-26.6,0-46.36-20.53-46.36-46.49v-0.26c0-25.7,19.37-46.75,47.14-46.75
		c17.05,0,27.25,5.68,35.64,13.95l-12.66,14.59c-6.97-6.33-14.08-10.2-23.12-10.2c-15.24,0-26.21,12.65-26.21,28.15v0.26
		c0,15.5,10.72,28.41,26.21,28.41c10.33,0,16.66-4.13,23.76-10.59l12.66,12.79C702.83,129.31,692.5,135.51,675.07,135.51z"/>
	<path fill="#020203" d="M806.4,133.96V43.57h19.89v90.39H806.4z"/>
	<path fill="#020203" d="M912.3,133.96L868.52,76.5v57.47h-19.63V43.57h18.34l42.36,55.66V43.57h19.63v90.39H912.3z"/>
</g>
<g>
	<g>
		<path fill="#FFFFFF" d="M788.91,89.55c2.99,21.76-12.32,41.26-34.28,40.92c-21.96-0.66-37.27-20.26-34.28-41.17
			c2.98-20.93,18.3-39.82,34.28-40.35C770.6,48.77,785.93,67.78,788.91,89.55z"/>
		<path fill="#020203" d="M777,57.27c-15.89,18.52-35.55,39.14-58.74,55.74c-1.04-3.6-2.03-7.17-2.97-10.71
			c21.58-16.7,39.87-37.02,54.66-55.56C772.22,50.26,774.57,53.77,777,57.27z"/>
		<path fill="#020203" d="M789.61,85.66c-12.72,16.34-27.93,33.89-45.54,49.56c-5.98-5.28-11.7-10.62-17.14-15.89
			c23.07-17.07,42.57-37.79,58.27-56.02C786.62,70.78,788.09,78.24,789.61,85.66z"/>
		<path fill="#020203" d="M754.62,40.6c-18.52,0.84-36.96,24.07-41.28,48.54c-4.34,24.46,14.08,48.67,41.28,49.67
			c27.2,0.42,45.62-23.7,41.28-49.37C791.58,63.75,773.14,40.37,754.62,40.6z M754.62,130.47c-21.96-0.66-37.27-20.26-34.28-41.17
			c2.98-20.92,18.3-39.82,34.28-40.35c15.98-0.18,31.3,18.83,34.28,40.6C791.9,111.31,776.59,130.81,754.62,130.47z"/>
	</g>
</g>
<g>
	<path fill-rule="evenodd" clip-rule="evenodd" fill="#FFFFFF" d="M967.28,7.93c-14.5,0.18-26.19,11.99-26.19,26.53
		c0,14.65,11.88,26.53,26.53,26.53c14.65,0,26.53-11.88,26.53-26.53c0-14.65-11.88-26.53-26.53-26.53
		C967.51,7.93,967.39,7.93,967.28,7.93L967.28,7.93z"/>
	<path fill-rule="evenodd" clip-rule="evenodd" fill="#020203" d="M967.14,19.31c-8.15,0.26-14.68,6.95-14.68,15.16
		c0,8.37,6.79,15.16,15.16,15.16c7.16,0,13.17-4.96,14.76-11.64l-7.44,0c-1.31,2.72-4.09,4.6-7.32,4.6c-4.49,0-8.12-3.64-8.12-8.12
		c0-4.4,3.5-7.98,7.86-8.12c0.09,0,0.17,0,0.26,0c3.22,0,6.01,1.88,7.32,4.6l7.44,0c-1.59-6.68-7.59-11.64-14.76-11.64h-0.19
		c-0.06,0-0.13,0-0.19,0C967.24,19.31,967.14,19.31,967.14,19.31z"/>
	<path fill-rule="evenodd" clip-rule="evenodd" fill="#020203" d="M981.66,13.61l-21.81,45.2l-6.26-3.49l21.81-45.2L981.66,13.61z"
		/>
	<path fill-rule="evenodd" clip-rule="evenodd" fill="#020203" d="M967.28,7.93c-14.5,0.18-26.19,11.99-26.19,26.53
		c0,14.65,11.88,26.53,26.53,26.53c14.65,0,26.53-11.88,26.53-26.53c0-14.65-11.88-26.53-26.53-26.53
		C967.51,7.93,967.39,7.93,967.28,7.93L967.28,7.93z M967.22,13.62c0.13,0,0.27,0,0.41,0c11.51,0,20.85,9.33,20.85,20.85
		s-9.33,20.85-20.85,20.85c-11.51,0-20.85-9.33-20.85-20.85C946.78,23.09,955.89,13.84,967.22,13.62z"/>
</g>
<g>
	<g>
		<path fill="#FFFFFF" d="M163.65,89.55c2.99,21.76-12.32,41.26-34.28,40.92c-21.96-0.66-37.27-20.26-34.28-41.17
			c2.98-20.93,18.3-39.82,34.28-40.35C145.35,48.77,160.67,67.78,163.65,89.55z"/>
		<path fill="#020203" d="M151.75,57.27c-15.89,18.52-35.55,39.14-58.74,55.74c-1.04-3.6-2.03-7.17-2.97-10.71
			c21.58-16.7,39.87-37.02,54.66-55.56C146.97,50.26,149.32,53.77,151.75,57.27z"/>
		<path fill="#020203" d="M164.36,85.66c-12.72,16.34-27.93,33.89-45.54,49.56c-5.98-5.28-11.7-10.62-17.14-15.89
			c23.07-17.07,42.57-37.79,58.27-56.02C161.37,70.78,162.84,78.24,164.36,85.66z"/>
		<path fill="#020203" d="M129.37,40.6c-18.52,0.84-36.96,24.07-41.28,48.54c-4.34,24.46,14.08,48.67,41.28,49.67
			c27.2,0.42,45.62-23.7,41.28-49.37C166.33,63.75,147.89,40.37,129.37,40.6z M129.37,130.47c-21.96-0.66-37.27-20.26-34.28-41.17
			c2.98-20.93,18.3-39.82,34.28-40.35c15.98-0.18,31.3,18.83,34.28,40.6C166.64,111.31,151.33,130.81,129.37,130.47z"/>
	</g>
</g>
</svg>
